<?xml version="1.0" standalone="no"?>
<!DOCTYPE svg PUBLIC "-//W3C//DTD SVG 20010904//EN"
 "http://www.w3.org/TR/2001/REC-SVG-20010904/DTD/svg10.dtd">
<svg version="1.0" xmlns="http://www.w3.org/2000/svg"
 width="424.000000pt" height="855.000000pt" viewBox="0 0 424.000000 855.000000"
 preserveAspectRatio="xMidYMid meet">

<g transform="translate(0.000000,855.000000) scale(0.100000,-0.100000)"
fill="#000000" stroke="none">
<path d="M1944 8531 c-179 -49 -371 -189 -483 -354 -77 -114 -141 -313 -141
-441 0 -131 49 -289 125 -407 219 -338 701 -479 1045 -306 123 62 296 249 374
405 55 109 69 183 63 337 -6 154 -23 226 -83 352 -72 150 -189 260 -366 342
-176 83 -388 111 -534 72z"/>
<path d="M1314 6730 c-152 -11 -209 -29 -261 -82 -73 -75 -120 -190 -460
-1133 -396 -1100 -539 -1522 -578 -1710 -15 -73 -15 -83 0 -121 35 -93 161
-165 258 -149 52 9 105 35 133 67 54 58 217 443 500 1181 229 595 380 947 408
947 24 0 73 -48 89 -88 44 -110 98 -440 100 -617 2 -102 0 -113 -24 -157 -37
-64 -123 -177 -210 -273 -310 -345 -444 -625 -533 -1120 -52 -287 -53 -380 -6
-405 44 -24 488 -34 1530 -34 586 -1 1105 3 1153 7 70 7 94 14 115 32 27 23
27 25 26 147 -2 235 -100 619 -225 878 -79 163 -163 288 -297 441 -138 158
-227 270 -255 323 -20 38 -22 54 -22 216 0 140 5 197 23 286 44 222 117 380
166 361 32 -12 176 -353 446 -1052 394 -1021 458 -1145 597 -1145 23 0 73 11
110 25 80 28 128 74 139 132 24 129 -74 449 -493 1602 -284 785 -469 1251
-532 1346 -31 47 -73 70 -156 86 -72 13 -1567 21 -1741 9z"/>
<path d="M1200 2892 c0 -10 4 -65 10 -123 9 -97 25 -432 50 -1064 43 -1064 62
-1344 101 -1470 32 -104 121 -185 243 -220 73 -21 135 -15 210 20 132 62 172
176 197 555 7 122 12 545 13 1250 l1 1065 -412 3 c-395 2 -413 1 -413 -16z"/>
<path d="M2233 1833 c6 -1025 15 -1377 38 -1523 20 -126 82 -221 181 -276 46
-25 63 -29 133 -29 92 1 145 21 218 85 104 92 128 201 157 735 34 623 61 1377
63 1765 l2 315 -399 3 -399 2 6 -1077z"/>
</g>
</svg>
