<?xml version="1.0" standalone="no"?>
<!DOCTYPE svg PUBLIC "-//W3C//DTD SVG 20010904//EN"
 "http://www.w3.org/TR/2001/REC-SVG-20010904/DTD/svg10.dtd">
<svg version="1.0" xmlns="http://www.w3.org/2000/svg"
 width="439.000000pt" height="856.000000pt" viewBox="0 0 439.000000 856.000000"
 preserveAspectRatio="xMidYMid meet">

<g transform="translate(0.000000,856.000000) scale(0.100000,-0.100000)"
fill="#000000" stroke="none">
<path d="M2020 8535 c-78 -19 -188 -67 -256 -110 -83 -53 -213 -187 -262 -270
-102 -174 -136 -382 -93 -569 52 -226 199 -428 391 -539 251 -145 597 -129
846 41 75 50 199 181 243 255 83 141 115 270 108 432 -6 124 -22 184 -78 300
-107 222 -320 396 -553 455 -93 24 -260 26 -346 5z"/>
<path d="M1418 6730 c-148 -10 -222 -23 -264 -49 -37 -23 -94 -91 -122 -146
-11 -22 -156 -384 -322 -805 -515 -1305 -700 -1818 -700 -1943 0 -149 143
-272 293 -253 70 10 151 50 187 94 51 62 134 246 235 522 288 784 579 1514
622 1562 9 10 26 18 38 18 100 0 59 -168 -417 -1690 -199 -639 -371 -1200
-389 -1273 -6 -26 -8 -51 -4 -55 12 -12 969 -14 2133 -4 612 6 1115 12 1118
14 2 3 -132 436 -297 964 -459 1464 -597 1931 -585 1980 9 33 51 60 71 44 50
-41 207 -402 445 -1025 216 -565 403 -1013 447 -1073 40 -53 96 -77 183 -76
121 0 215 56 267 158 41 81 37 122 -40 347 -201 596 -790 2075 -993 2497 -61
126 -67 134 -107 152 -24 11 -70 24 -102 31 -72 13 -1501 21 -1697 9z"/>
<path d="M1257 2573 c-3 -5 1 -532 8 -1173 l13 -1165 53 -49 c98 -90 173 -149
214 -167 129 -59 371 30 449 164 49 84 49 81 53 1275 l4 1122 -395 0 c-217 0
-397 -3 -399 -7z"/>
<path d="M2300 1623 c0 -925 7 -1190 31 -1291 19 -74 57 -141 117 -204 159
-167 387 -164 558 6 78 78 91 124 104 353 8 137 30 1608 30 1991 l0 102 -420
0 -420 0 0 -957z"/>
</g>
</svg>
