<?xml version="1.0" standalone="no"?>
<!DOCTYPE svg PUBLIC "-//W3C//DTD SVG 20010904//EN"
 "http://www.w3.org/TR/2001/REC-SVG-20010904/DTD/svg10.dtd">
<svg version="1.0" xmlns="http://www.w3.org/2000/svg"
 width="498.000000pt" height="836.000000pt" viewBox="0 0 498.000000 836.000000"
 preserveAspectRatio="xMidYMid meet">

<g transform="translate(0.000000,836.000000) scale(0.100000,-0.100000)"
fill="#000000" stroke="none">
<path d="M2295 8346 c-141 -27 -261 -94 -379 -210 -103 -102 -164 -201 -212
-346 -25 -77 -28 -99 -28 -225 0 -132 1 -145 32 -235 48 -139 100 -220 211
-330 110 -108 184 -153 326 -196 120 -36 306 -38 430 -5 335 88 560 346 594
678 26 254 -66 502 -252 679 -94 90 -197 149 -312 180 -83 22 -319 28 -410 10z"/>
<path d="M1221 6975 c-92 -20 -186 -53 -261 -90 -371 -186 -739 -773 -880
-1403 -47 -212 -61 -377 -67 -769 -11 -762 53 -1046 260 -1155 58 -31 164 -32
203 -2 77 57 83 100 94 779 9 570 20 705 70 900 67 261 240 606 327 653 21 11
28 11 49 -3 45 -29 28 -86 -104 -347 -113 -222 -170 -405 -204 -658 -17 -126
-17 -901 0 -1185 56 -930 72 -1190 78 -1258 l6 -77 1676 2 1677 3 12 95 c44
343 101 1305 110 1856 10 614 -21 789 -218 1211 -102 219 -130 306 -111 347 9
20 19 26 42 26 27 0 36 -9 74 -67 74 -115 159 -299 233 -503 76 -210 82 -278
93 -985 11 -699 15 -729 106 -786 97 -59 248 14 331 161 69 122 119 316 144
555 17 167 6 574 -20 770 -82 611 -260 1117 -507 1444 -272 362 -688 562
-1001 483 -110 -28 -208 -78 -339 -174 -117 -87 -249 -155 -354 -185 -52 -14
-100 -18 -235 -17 -152 0 -181 3 -269 27 -117 31 -283 109 -421 197 -241 153
-404 196 -594 155z"/>
<path d="M1268 2229 c-113 -12 -121 -18 -113 -87 23 -199 181 -1072 271 -1502
81 -388 91 -417 177 -507 164 -174 456 -171 620 6 113 122 125 178 137 626 5
187 9 595 10 908 l0 567 -512 -1 c-282 -1 -548 -5 -590 -10z"/>
<path d="M2570 1498 c0 -1206 8 -1252 241 -1408 145 -96 232 -110 393 -60 110
34 181 113 235 260 69 192 113 408 281 1385 44 259 85 486 90 505 6 19 10 41
10 48 0 9 -132 12 -625 12 l-625 0 0 -742z"/>
</g>
</svg>
