<?xml version="1.0" standalone="no"?>
<!DOCTYPE svg PUBLIC "-//W3C//DTD SVG 20010904//EN"
 "http://www.w3.org/TR/2001/REC-SVG-20010904/DTD/svg10.dtd">
<svg version="1.0" xmlns="http://www.w3.org/2000/svg"
 width="427.000000pt" height="478.000000pt" viewBox="0 0 427.000000 478.000000"
 preserveAspectRatio="xMidYMid meet">

<g transform="translate(0.000000,478.000000) scale(0.100000,-0.100000)"
fill="#000000" stroke="none">
<path d="M429 4750 c-62 -33 -109 -106 -109 -170 0 -61 53 -146 111 -176 43
-22 134 -18 180 8 87 49 122 161 77 247 -13 25 -40 58 -61 75 -50 40 -142 47
-198 16z"/>
<path d="M1919 4750 c-180 -97 -119 -360 84 -360 67 0 102 15 144 64 78 88 65
208 -32 282 -50 37 -141 44 -196 14z"/>
<path d="M3528 4681 c-107 -68 -119 -225 -24 -309 32 -28 89 -52 125 -52 38 0
99 28 132 61 72 72 74 188 6 266 -62 70 -159 85 -239 34z"/>
<path d="M3295 4381 c-102 -28 -171 -91 -216 -199 -97 -233 -116 -477 -48
-632 26 -60 66 -100 98 -100 53 0 65 27 46 107 -46 198 -40 339 20 471 34 72
57 94 77 74 7 -7 4 -20 -11 -41 -37 -52 -63 -140 -68 -236 -6 -114 16 -267
107 -730 37 -192 71 -367 74 -387 11 -62 43 -90 109 -96 54 -4 58 -3 93 32
l37 37 -4 357 -4 357 23 3 23 4 -1 -359 c-1 -197 1 -366 5 -375 12 -30 69 -58
117 -58 35 0 51 6 71 26 31 31 31 29 56 174 12 63 41 214 65 335 116 579 124
716 49 878 -20 42 -34 80 -30 83 25 25 76 -53 108 -166 17 -61 15 -227 -5
-325 -20 -100 -20 -139 -1 -155 37 -31 98 -2 131 62 45 87 59 289 30 440 -19
98 -88 276 -127 324 -88 111 -230 135 -322 55 -55 -48 -94 -63 -166 -63 -79 0
-110 11 -176 62 -54 42 -107 55 -160 41z"/>
<path d="M115 4307 c-22 -12 -50 -38 -62 -56 -23 -34 -23 -36 -23 -392 0 -346
1 -360 20 -379 29 -29 74 -26 99 6 20 26 21 38 21 315 0 158 4 290 8 293 19
12 31 -19 68 -174 l39 -165 5 -542 5 -543 27 -27 c39 -38 97 -38 136 0 l27 27
3 426 3 425 27 -3 27 -3 5 -427 c5 -427 5 -427 28 -450 33 -33 94 -31 130 5
l27 27 5 543 5 542 39 160 c39 159 50 190 67 179 5 -3 9 -135 9 -293 0 -277 1
-289 21 -315 26 -33 77 -36 105 -5 18 20 19 43 22 343 2 176 0 340 -3 364 -7
47 -49 103 -96 128 -23 11 -93 14 -391 14 -358 0 -364 -1 -403 -23z"/>
<path d="M1620 4308 c-19 -21 -20 -33 -20 -413 0 -380 1 -392 20 -413 26 -28
73 -29 100 -2 19 19 20 33 20 314 0 243 2 295 14 299 8 3 17 3 20 0 3 -4 6
-323 6 -710 l0 -703 29 -32 c24 -27 36 -33 70 -33 29 0 47 7 63 23 23 23 23
23 28 450 l5 427 27 3 27 3 3 -425 3 -426 27 -27 c39 -38 97 -38 136 0 l27 27
5 713 c3 391 8 711 13 710 4 -2 12 -3 17 -3 6 0 10 -105 10 -295 0 -282 1
-296 20 -315 29 -29 74 -26 99 6 20 26 21 37 21 409 0 372 -1 383 -21 409
l-20 26 -364 0 c-362 0 -364 0 -385 -22z"/>
<path d="M475 2061 c-66 -16 -126 -74 -144 -138 -13 -47 -13 -59 -1 -105 30
-105 160 -167 263 -124 41 17 91 74 107 121 16 47 7 117 -21 161 -37 61 -135
101 -204 85z"/>
<path d="M1964 2061 c-118 -29 -183 -151 -138 -259 31 -76 99 -122 178 -122
135 1 231 138 180 258 -38 91 -132 143 -220 123z"/>
<path d="M3545 2003 c-125 -66 -149 -220 -48 -315 89 -85 248 -56 302 54 48
99 3 223 -96 264 -43 18 -121 17 -158 -3z"/>
<path d="M3282 1673 c-60 -21 -124 -90 -171 -183 -57 -114 -76 -207 -76 -370
0 -143 12 -207 46 -241 25 -25 65 -25 79 0 5 11 10 85 9 173 -1 166 10 227 56
317 27 54 42 68 56 54 6 -6 -2 -30 -20 -64 -68 -126 -74 -202 -50 -586 l12
-193 402 0 402 0 6 47 c4 27 12 150 18 274 15 264 8 329 -48 440 -32 64 -35
89 -13 89 12 0 45 -64 73 -140 18 -48 21 -78 21 -227 1 -150 3 -175 18 -190
14 -13 24 -15 45 -7 81 28 104 256 48 480 -41 164 -111 270 -208 318 -81 41
-143 34 -215 -23 -82 -66 -194 -64 -299 5 -75 49 -114 55 -191 27z"/>
<path d="M262 1613 c-23 -21 -23 -21 -158 -397 -71 -197 -102 -296 -98 -313
11 -43 68 -57 98 -24 10 11 59 129 110 262 50 133 97 244 103 246 6 2 16 -4
22 -15 15 -28 33 -152 26 -180 -3 -12 -29 -49 -59 -81 -69 -75 -104 -148 -124
-261 -14 -79 -14 -93 -1 -101 15 -10 638 -13 663 -3 20 8 20 33 1 126 -20 95
-58 171 -116 233 -25 28 -52 61 -58 73 -24 45 11 220 41 210 6 -2 49 -103 95
-224 118 -308 124 -318 179 -299 57 21 54 35 -76 396 -80 221 -127 340 -141
352 -19 15 -47 17 -254 17 -207 0 -235 -2 -253 -17z"/>
<path d="M1754 1615 c-12 -8 -26 -27 -32 -42 -6 -15 -63 -160 -127 -321 -66
-169 -115 -308 -115 -327 0 -56 59 -83 107 -50 12 8 34 50 51 97 71 195 153
403 162 412 7 7 14 6 21 -1 9 -9 -16 -100 -99 -365 -61 -194 -110 -354 -108
-355 2 -2 178 -2 393 -1 l390 3 -108 345 c-60 190 -108 352 -106 360 1 8 9 15
16 15 10 0 47 -84 108 -244 51 -134 100 -252 109 -263 37 -40 114 -8 114 48 0
39 -248 666 -272 687 -18 15 -46 17 -252 17 -187 0 -236 -3 -252 -15z"/>
<path d="M296 673 c2 -21 8 -164 14 -318 10 -239 14 -284 29 -304 23 -33 66
-47 97 -32 49 22 54 55 54 386 l0 305 -99 0 -99 0 4 -37z"/>
<path d="M541 408 c0 -207 4 -314 12 -338 23 -67 96 -78 138 -20 15 21 19 62
28 260 6 129 11 272 11 318 l0 82 -95 0 -95 0 1 -302z"/>
<path d="M1782 349 l3 -281 34 -30 c28 -25 39 -29 70 -24 21 3 45 16 59 31 22
26 22 30 22 306 l0 279 -95 0 -96 0 3 -281z"/>
<path d="M2030 363 c0 -250 1 -270 20 -301 36 -58 104 -65 151 -16 24 25 24
27 27 305 l3 279 -101 0 -100 0 0 -267z"/>
<path d="M3310 538 c0 -40 75 -439 88 -466 34 -74 140 -79 182 -9 18 29 20 52
20 260 l0 227 -145 0 c-103 0 -145 -3 -145 -12z"/>
<path d="M3650 328 c0 -246 3 -257 60 -296 26 -18 44 -22 68 -18 72 11 85 40
128 289 19 111 36 212 39 225 l5 22 -150 0 -150 0 0 -222z"/>
</g>
</svg>
