<?xml version="1.0" standalone="no"?>
<!DOCTYPE svg PUBLIC "-//W3C//DTD SVG 20010904//EN"
 "http://www.w3.org/TR/2001/REC-SVG-20010904/DTD/svg10.dtd">
<svg version="1.0" xmlns="http://www.w3.org/2000/svg"
 width="409.000000pt" height="898.000000pt" viewBox="0 0 409.000000 898.000000"
 preserveAspectRatio="xMidYMid meet">

<g transform="translate(0.000000,898.000000) scale(0.100000,-0.100000)"
fill="#000000" stroke="none">
<path d="M1895 8971 c-28 -5 -77 -16 -110 -25 -305 -89 -575 -444 -575 -757 0
-137 63 -308 172 -466 65 -94 197 -220 274 -260 194 -103 545 -91 769 25 98
51 247 200 299 300 101 195 128 388 80 575 -36 139 -115 267 -249 402 -102
103 -181 148 -320 185 -89 23 -261 34 -340 21z"/>
<path d="M835 7139 c-255 -8 -355 -24 -444 -69 -116 -58 -259 -187 -315 -283
-73 -123 -79 -267 -73 -1749 5 -1244 7 -1300 50 -1388 40 -82 152 -137 255
-127 102 11 212 100 240 195 28 93 34 258 43 1232 9 976 15 1180 32 1208 15
23 46 12 71 -25 52 -81 110 -289 281 -1013 l86 -365 21 -2260 20 -2260 77 -78
c56 -58 95 -88 150 -115 71 -35 80 -37 170 -37 141 1 190 23 308 139 l94 91
11 1758 c7 966 15 1762 19 1768 5 8 35 8 110 -1 57 -6 104 -12 105 -13 1 -1 6
-519 13 -1152 14 -1353 27 -2074 41 -2234 15 -166 29 -208 90 -265 68 -63 127
-88 222 -94 140 -8 252 43 381 176 l49 50 20 2253 19 2254 90 375 c220 918
283 1110 345 1049 24 -25 35 -346 44 -1349 6 -608 13 -976 20 -1014 17 -92 47
-152 102 -201 63 -57 129 -79 217 -73 79 6 134 32 184 87 66 73 74 144 87 731
12 550 12 1960 1 2130 -7 95 -15 141 -35 194 -59 156 -229 352 -359 415 -85
42 -164 50 -597 61 -421 11 -1905 10 -2245 -1z"/>
</g>
</svg>
