<?xml version="1.0" standalone="no"?>
<!DOCTYPE svg PUBLIC "-//W3C//DTD SVG 20010904//EN"
 "http://www.w3.org/TR/2001/REC-SVG-20010904/DTD/svg10.dtd">
<svg version="1.0" xmlns="http://www.w3.org/2000/svg"
 width="338.000000pt" height="898.000000pt" viewBox="0 0 338.000000 898.000000"
 preserveAspectRatio="xMidYMid meet">

<g transform="translate(0.000000,898.000000) scale(0.100000,-0.100000)"
fill="#000000" stroke="none">
<path d="M1584 8970 c-187 -20 -336 -99 -486 -258 -82 -88 -141 -189 -178
-307 -34 -106 -39 -292 -11 -407 37 -158 109 -286 218 -389 158 -151 334 -215
583 -212 233 2 352 48 503 193 209 200 309 448 278 684 -12 85 -44 193 -76
257 -60 115 -188 259 -290 324 -138 89 -355 135 -541 115z"/>
<path d="M455 7140 c-238 -9 -294 -20 -348 -68 -103 -94 -102 -70 -102 -1737
0 -1634 1 -1641 88 -1728 58 -58 117 -82 207 -82 128 0 224 63 255 167 26 89
35 365 35 1193 0 803 10 1163 32 1231 10 29 20 40 43 46 59 15 62 9 69 -125 3
-67 9 -1391 12 -2943 l6 -2821 84 -92 c104 -116 143 -147 207 -166 184 -55
401 31 445 175 36 113 46 466 67 2289 8 695 16 1266 18 1267 6 6 207 27 212
23 2 -3 9 -799 15 -1769 l12 -1765 84 -83 c61 -60 103 -92 152 -115 61 -29 76
-32 162 -32 140 1 189 23 307 139 l93 91 10 1395 c18 2601 38 4144 56 4424 l6
98 35 -5 c20 -4 38 -8 40 -11 17 -16 25 -306 33 -1211 9 -996 14 -1155 41
-1245 25 -82 144 -160 244 -160 101 0 213 75 253 169 45 104 47 162 47 1646 0
1667 5 1588 -106 1735 l-60 80 -1282 -2 c-705 -1 -1367 -4 -1472 -8z"/>
</g>
</svg>
