<?xml version="1.0" standalone="no"?>
<!DOCTYPE svg PUBLIC "-//W3C//DTD SVG 20010904//EN"
 "http://www.w3.org/TR/2001/REC-SVG-20010904/DTD/svg10.dtd">
<svg version="1.0" xmlns="http://www.w3.org/2000/svg"
 width="531.000000pt" height="876.000000pt" viewBox="0 0 531.000000 876.000000"
 preserveAspectRatio="xMidYMid meet">

<g transform="translate(0.000000,876.000000) scale(0.100000,-0.100000)"
fill="#000000" stroke="none">
<path d="M2572 8750 c-282 -38 -538 -242 -638 -506 -131 -348 -18 -744 270
-948 121 -86 303 -159 426 -171 163 -17 437 102 590 254 85 85 150 192 192
311 31 92 33 100 32 250 0 142 -2 162 -28 240 -109 332 -377 550 -706 573 -41
3 -104 1 -138 -3z"/>
<path d="M3740 7395 c-155 -35 -269 -93 -396 -202 -131 -112 -271 -188 -403
-217 -103 -23 -313 -31 -445 -17 -198 22 -313 73 -533 236 -272 203 -487 250
-747 165 -219 -71 -367 -160 -516 -309 -163 -164 -276 -357 -393 -676 -138
-376 -222 -712 -274 -1093 -22 -164 -25 -680 -5 -817 60 -396 186 -702 356
-863 80 -76 149 -105 234 -100 197 11 231 119 152 483 -84 390 -113 626 -114
925 0 403 67 706 228 1035 125 256 205 334 284 279 39 -27 30 -79 -30 -170
-131 -201 -216 -438 -264 -739 -22 -137 -30 -515 -15 -702 31 -388 145 -1085
340 -2093 27 -140 120 -619 206 -1065 85 -445 171 -886 189 -980 38 -197 67
-267 138 -338 89 -88 216 -128 418 -131 119 -1 127 0 170 26 25 15 99 81 165
147 l119 120 -16 1483 c-9 816 -16 1484 -14 1485 1 1 33 7 71 13 39 5 81 13
94 16 l23 5 -6 -1128 c-8 -1291 1 -1888 29 -1947 53 -110 261 -213 455 -223
163 -9 252 26 357 141 85 93 105 154 173 540 47 263 164 871 315 1637 295
1493 385 2097 385 2597 0 410 -44 618 -210 992 -43 97 -88 207 -99 245 -21 66
-21 70 -4 82 31 24 62 14 114 -34 91 -85 192 -273 274 -513 24 -72 51 -163 59
-203 34 -167 45 -499 26 -802 -13 -203 -31 -347 -76 -588 -41 -222 -54 -401
-34 -473 26 -93 113 -143 226 -131 86 9 158 49 245 137 119 120 193 286 249
559 80 395 86 946 14 1376 -63 373 -324 1086 -497 1354 -56 85 -177 215 -266
282 -85 65 -264 152 -366 179 -106 28 -295 35 -385 15z"/>
</g>
</svg>
